<?xml version="1.0" standalone="no"?>
<!DOCTYPE svg PUBLIC "-//W3C//DTD SVG 20010904//EN"
 "http://www.w3.org/TR/2001/REC-SVG-20010904/DTD/svg10.dtd">
<svg version="1.0" xmlns="http://www.w3.org/2000/svg"
 width="628.000000pt" height="628.000000pt" viewBox="0 0 628.000000 628.000000"
 preserveAspectRatio="xMidYMid meet">
<metadata>
Created by potrace 1.11, written by Peter Selinger 2001-2013
</metadata>
<g transform="translate(0.000000,628.000000) scale(0.100000,-0.100000)"
fill="#000000" stroke="none">
<path d="M445 6227 c-94 -39 -122 -55 -193 -115 -93 -78 -167 -191 -213 -327
l-24 -70 0 -2575 0 -2575 26 -77 c38 -111 106 -215 196 -298 42 -38 81 -70 85
-70 5 0 25 -11 46 -24 20 -14 73 -37 117 -53 l80 -28 2580 0 2580 0 80 28
c118 42 181 82 270 172 89 88 128 149 171 270 l29 80 3 2510 c2 1723 0 2539
-8 2603 -28 246 -185 450 -422 548 l-83 34 -2620 0 -2620 0 -80 -33z m1816
-1387 c19 -5 54 -26 77 -46 68 -58 72 -83 72 -469 0 -371 -5 -407 -62 -462
-64 -62 -70 -63 -471 -63 -362 0 -364 0 -408 23 -24 13 -57 43 -74 66 l-30 43
-3 366 c-2 254 1 380 9 408 13 51 71 110 125 129 47 17 706 21 765 5z m1233 1
c46 -11 104 -56 131 -102 19 -32 20 -55 23 -382 4 -401 0 -434 -56 -492 -63
-65 -61 -65 -470 -65 -367 0 -369 0 -413 23 -24 13 -57 43 -74 66 l-30 43 -3
376 -3 375 25 51 c27 54 74 93 128 106 46 11 695 11 742 1z m1267 -1 c19 -5
54 -26 77 -46 70 -60 74 -84 70 -496 -3 -396 -1 -385 -79 -452 -27 -23 -56
-37 -83 -41 -22 -3 -201 -5 -398 -3 l-356 3 -42 30 c-24 17 -53 50 -66 75 -24
45 -24 45 -24 410 l0 366 26 52 c27 54 70 89 128 102 47 12 705 11 747 0z
m-2477 -1195 c53 -22 94 -71 112 -131 13 -44 15 -111 12 -401 -3 -334 -4 -350
-24 -388 -25 -46 -45 -66 -91 -89 -28 -14 -81 -16 -407 -16 -240 0 -385 4
-403 11 -40 15 -82 57 -104 104 -17 37 -19 71 -19 403 0 305 2 369 15 400 21
49 52 81 100 103 37 17 72 19 406 19 305 0 373 -3 403 -15z m1251 -6 c55 -26
92 -73 106 -138 7 -32 9 -176 7 -400 l-3 -349 -30 -44 c-17 -23 -49 -53 -70
-65 -40 -22 -45 -23 -420 -23 -375 0 -380 1 -420 23 -21 12 -53 42 -70 65
l-30 44 0 388 0 388 30 44 c18 25 49 52 75 66 43 22 50 22 412 22 352 0 370
-1 413 -21z m1238 10 c56 -15 113 -78 126 -140 15 -68 15 -691 0 -744 -15 -54
-52 -101 -99 -125 -37 -19 -60 -20 -413 -20 -407 0 -416 1 -469 57 -57 59 -58
70 -58 463 0 303 2 367 15 398 21 49 52 81 100 103 37 17 71 19 400 19 223 0
374 -4 398 -11z m-2510 -1180 c21 -5 57 -29 81 -52 34 -33 46 -53 55 -95 15
-72 15 -663 0 -734 -15 -67 -73 -130 -137 -148 -30 -8 -154 -10 -407 -8 l-363
3 -43 30 c-23 17 -52 48 -63 70 -20 38 -21 57 -24 405 -3 398 -1 414 54 474
60 64 73 66 459 66 215 0 365 -4 388 -11z m1237 1 c44 -12 105 -62 128 -103
15 -29 17 -70 17 -402 0 -203 -4 -383 -8 -398 -4 -16 -26 -48 -48 -72 -60 -65
-81 -67 -500 -63 l-356 3 -42 29 c-26 18 -52 49 -67 78 l-24 47 0 365 0 364
28 53 c22 43 38 59 81 81 l53 28 352 0 c197 0 366 -4 386 -10z m1274 -4 c18
-7 49 -28 69 -46 65 -56 69 -87 65 -492 -3 -396 -1 -385 -79 -451 -55 -48 -72
-49 -490 -45 l-346 3 -42 29 c-26 18 -52 49 -67 78 l-24 47 0 363 c0 332 2
366 19 403 24 51 68 93 117 110 57 20 730 21 778 1z"/>
<path d="M4015 4695 l-25 -24 0 -344 c0 -333 1 -345 21 -371 l20 -26 354 0
354 0 20 26 c20 26 21 38 21 371 l0 344 -25 24 -24 25 -346 0 -346 0 -24 -25z"/>
<path d="M4010 3508 c-19 -21 -20 -33 -20 -369 0 -326 1 -348 19 -370 l19 -24
334 -3 c183 -2 343 0 356 3 12 3 31 14 42 25 19 19 20 35 20 368 l0 349 -23
21 c-23 22 -28 22 -375 22 -348 0 -351 0 -372 -22z"/>
<path d="M2755 2325 l-25 -24 0 -344 c0 -333 1 -345 21 -371 l20 -26 354 0
354 0 20 26 c20 26 21 38 21 371 l0 344 -25 24 -24 25 -346 0 -346 0 -24 -25z"/>
<path d="M4015 2325 l-25 -24 0 -349 0 -349 23 -21 c23 -22 28 -22 374 -22
l352 0 20 26 c20 26 21 38 21 371 l0 344 -25 24 -24 25 -346 0 -346 0 -24 -25z"/>
</g>
</svg>
